<mxfile host="app.diagrams.net" agent="Mozilla/5.0 (X11; Linux x86_64) AppleWebKit/537.36 (KHTML, like Gecko) Chrome/135.0.0.0 Safari/537.36" version="26.1.1">
  <diagram name="Page-1" id="OsbpnMVMir5d5On4mEyH">
    <mxGraphModel dx="3000" dy="1626" grid="1" gridSize="10" guides="1" tooltips="1" connect="1" arrows="1" fold="1" page="1" pageScale="1" pageWidth="850" pageHeight="1100" math="0" shadow="0">
      <root>
        <mxCell id="0" />
        <mxCell id="1" parent="0" />
        <mxCell id="r5Bo3zyKJavz-clfbByA-1" value="SEC-350 WAN 10.0.17.0/24" style="rounded=1;whiteSpace=wrap;html=1;align=center;" parent="1" vertex="1">
          <mxGeometry x="560" y="380" width="340" height="40" as="geometry" />
        </mxCell>
        <mxCell id="r5Bo3zyKJavz-clfbByA-2" value="LAN 172.16.150.0/24" style="rounded=1;whiteSpace=wrap;html=1;align=center;" parent="1" vertex="1">
          <mxGeometry x="770" y="620" width="340" height="40" as="geometry" />
        </mxCell>
        <mxCell id="r5Bo3zyKJavz-clfbByA-3" value="DMZ 172.16.50.0/29" style="rounded=1;whiteSpace=wrap;html=1;align=center;" parent="1" vertex="1">
          <mxGeometry x="160" y="610" width="340" height="40" as="geometry" />
        </mxCell>
        <mxCell id="r5Bo3zyKJavz-clfbByA-4" value="EDGE02" style="outlineConnect=0;dashed=0;verticalLabelPosition=bottom;verticalAlign=top;align=center;html=1;shape=mxgraph.aws3.router;fillColor=#F58534;gradientColor=none;" parent="1" vertex="1">
          <mxGeometry x="610" y="502.6" width="69" height="72" as="geometry" />
        </mxCell>
        <mxCell id="r5Bo3zyKJavz-clfbByA-5" value="" style="endArrow=none;html=1;rounded=0;entryX=0.855;entryY=0.855;entryDx=0;entryDy=0;entryPerimeter=0;exitX=0.104;exitY=0;exitDx=0;exitDy=0;exitPerimeter=0;" parent="1" source="r5Bo3zyKJavz-clfbByA-2" target="r5Bo3zyKJavz-clfbByA-4" edge="1">
          <mxGeometry width="50" height="50" relative="1" as="geometry">
            <mxPoint x="921" y="710" as="sourcePoint" />
            <mxPoint x="971" y="660" as="targetPoint" />
          </mxGeometry>
        </mxCell>
        <mxCell id="r5Bo3zyKJavz-clfbByA-6" value="172.16.150.2&lt;div&gt;eth2&lt;/div&gt;" style="edgeLabel;html=1;align=center;verticalAlign=middle;resizable=0;points=[];rotation=0;" parent="r5Bo3zyKJavz-clfbByA-5" vertex="1" connectable="0">
          <mxGeometry x="0.002" y="2" relative="1" as="geometry">
            <mxPoint x="-6" y="-14" as="offset" />
          </mxGeometry>
        </mxCell>
        <mxCell id="r5Bo3zyKJavz-clfbByA-7" value="" style="endArrow=none;html=1;rounded=0;entryX=0.145;entryY=0.855;entryDx=0;entryDy=0;entryPerimeter=0;exitX=0.829;exitY=-0.05;exitDx=0;exitDy=0;exitPerimeter=0;" parent="1" source="r5Bo3zyKJavz-clfbByA-3" target="r5Bo3zyKJavz-clfbByA-4" edge="1">
          <mxGeometry width="50" height="50" relative="1" as="geometry">
            <mxPoint x="491" y="560" as="sourcePoint" />
            <mxPoint x="541" y="510" as="targetPoint" />
          </mxGeometry>
        </mxCell>
        <mxCell id="r5Bo3zyKJavz-clfbByA-8" value="172.16.50.2&lt;div&gt;eth1&lt;/div&gt;" style="edgeLabel;html=1;align=center;verticalAlign=middle;resizable=0;points=[];rotation=0;" parent="r5Bo3zyKJavz-clfbByA-7" vertex="1" connectable="0">
          <mxGeometry x="0.4" y="-1" relative="1" as="geometry">
            <mxPoint x="-17" y="6" as="offset" />
          </mxGeometry>
        </mxCell>
        <mxCell id="r5Bo3zyKJavz-clfbByA-9" value="&lt;div&gt;JUMP&lt;br&gt;&lt;div&gt;172.16.50.4&lt;/div&gt;&lt;/div&gt;" style="outlineConnect=0;dashed=0;verticalLabelPosition=bottom;verticalAlign=top;align=center;html=1;shape=mxgraph.aws3.traditional_server;fillColor=#7D7C7C;gradientColor=none;" parent="1" vertex="1">
          <mxGeometry x="400" y="693" width="35.5" height="53" as="geometry" />
        </mxCell>
        <mxCell id="r5Bo3zyKJavz-clfbByA-10" value="" style="endArrow=none;html=1;rounded=0;exitX=0.153;exitY=0.975;exitDx=0;exitDy=0;exitPerimeter=0;" parent="1" source="r5Bo3zyKJavz-clfbByA-3" edge="1">
          <mxGeometry width="50" height="50" relative="1" as="geometry">
            <mxPoint x="481" y="850" as="sourcePoint" />
            <mxPoint x="210" y="690" as="targetPoint" />
          </mxGeometry>
        </mxCell>
        <mxCell id="r5Bo3zyKJavz-clfbByA-11" value="" style="endArrow=none;html=1;rounded=0;entryX=0.5;entryY=0;entryDx=0;entryDy=0;entryPerimeter=0;exitX=0.432;exitY=1.047;exitDx=0;exitDy=0;exitPerimeter=0;" parent="1" source="r5Bo3zyKJavz-clfbByA-1" target="r5Bo3zyKJavz-clfbByA-4" edge="1">
          <mxGeometry width="50" height="50" relative="1" as="geometry">
            <mxPoint x="805" y="530" as="sourcePoint" />
            <mxPoint x="855" y="480" as="targetPoint" />
          </mxGeometry>
        </mxCell>
        <mxCell id="r5Bo3zyKJavz-clfbByA-12" value="10.0.17.151&lt;div&gt;eth0&lt;/div&gt;" style="edgeLabel;html=1;align=center;verticalAlign=middle;resizable=0;points=[];" parent="r5Bo3zyKJavz-clfbByA-11" vertex="1" connectable="0">
          <mxGeometry x="0.4517" y="1" relative="1" as="geometry">
            <mxPoint as="offset" />
          </mxGeometry>
        </mxCell>
        <mxCell id="r5Bo3zyKJavz-clfbByA-13" value="esxi02-fw1" style="image;html=1;image=img/lib/clip_art/networking/Firewall_02_128x128.png" parent="1" vertex="1">
          <mxGeometry x="466.01" y="170" width="80" height="80" as="geometry" />
        </mxCell>
        <mxCell id="r5Bo3zyKJavz-clfbByA-14" value="&lt;div&gt;&lt;br&gt;&lt;/div&gt;" style="shape=umlActor;verticalLabelPosition=bottom;verticalAlign=top;html=1;outlineConnect=0;" parent="1" vertex="1">
          <mxGeometry x="190" y="210" width="50" height="80" as="geometry" />
        </mxCell>
        <mxCell id="r5Bo3zyKJavz-clfbByA-15" value="" style="endArrow=none;html=1;rounded=0;exitX=0;exitY=0.5;exitDx=0;exitDy=0;" parent="1" source="r5Bo3zyKJavz-clfbByA-56" target="r5Bo3zyKJavz-clfbByA-14" edge="1">
          <mxGeometry width="50" height="50" relative="1" as="geometry">
            <mxPoint x="460" y="390" as="sourcePoint" />
            <mxPoint x="510" y="340" as="targetPoint" />
          </mxGeometry>
        </mxCell>
        <mxCell id="r5Bo3zyKJavz-clfbByA-16" value="sec350.cyber.local&lt;div&gt;10.0.17.100&lt;/div&gt;" style="image;points=[];aspect=fixed;html=1;align=center;shadow=0;dashed=0;image=img/lib/allied_telesis/computer_and_terminals/Server_Desktop.svg;" parent="1" vertex="1">
          <mxGeometry x="443.99" y="364" width="56.01" height="71" as="geometry" />
        </mxCell>
        <mxCell id="r5Bo3zyKJavz-clfbByA-17" value="" style="endArrow=none;html=1;rounded=0;entryX=0;entryY=1;entryDx=0;entryDy=0;exitX=0.417;exitY=0.031;exitDx=0;exitDy=0;exitPerimeter=0;" parent="1" source="r5Bo3zyKJavz-clfbByA-16" target="r5Bo3zyKJavz-clfbByA-13" edge="1">
          <mxGeometry width="50" height="50" relative="1" as="geometry">
            <mxPoint x="620" y="470" as="sourcePoint" />
            <mxPoint x="670" y="420" as="targetPoint" />
          </mxGeometry>
        </mxCell>
        <mxCell id="r5Bo3zyKJavz-clfbByA-18" value="port forwarding" style="edgeLabel;html=1;align=center;verticalAlign=middle;resizable=0;points=[];rotation=90;" parent="r5Bo3zyKJavz-clfbByA-17" vertex="1" connectable="0">
          <mxGeometry x="-0.27" y="1" relative="1" as="geometry">
            <mxPoint x="-7" as="offset" />
          </mxGeometry>
        </mxCell>
        <mxCell id="r5Bo3zyKJavz-clfbByA-19" value="" style="endArrow=none;html=1;rounded=0;exitX=0;exitY=0.5;exitDx=0;exitDy=0;entryX=1.006;entryY=0.471;entryDx=0;entryDy=0;entryPerimeter=0;" parent="1" source="r5Bo3zyKJavz-clfbByA-1" target="r5Bo3zyKJavz-clfbByA-16" edge="1">
          <mxGeometry width="50" height="50" relative="1" as="geometry">
            <mxPoint x="570" y="440" as="sourcePoint" />
            <mxPoint x="410" y="380" as="targetPoint" />
          </mxGeometry>
        </mxCell>
        <mxCell id="r5Bo3zyKJavz-clfbByA-20" value="" style="endArrow=none;html=1;rounded=0;entryX=1;entryY=0.965;entryDx=0;entryDy=0;entryPerimeter=0;exitX=0.49;exitY=-0.035;exitDx=0;exitDy=0;exitPerimeter=0;" parent="1" source="r5Bo3zyKJavz-clfbByA-1" target="r5Bo3zyKJavz-clfbByA-13" edge="1">
          <mxGeometry width="50" height="50" relative="1" as="geometry">
            <mxPoint x="600" y="310" as="sourcePoint" />
            <mxPoint x="650" y="260" as="targetPoint" />
          </mxGeometry>
        </mxCell>
        <mxCell id="r5Bo3zyKJavz-clfbByA-21" value="10.0.17.2" style="edgeLabel;html=1;align=center;verticalAlign=middle;resizable=0;points=[];" parent="r5Bo3zyKJavz-clfbByA-20" vertex="1" connectable="0">
          <mxGeometry x="0.7364" y="-1" relative="1" as="geometry">
            <mxPoint x="8" y="8" as="offset" />
          </mxGeometry>
        </mxCell>
        <mxCell id="r5Bo3zyKJavz-clfbByA-23" value="MGMT 172.16.2000.0/28" style="rounded=1;whiteSpace=wrap;html=1;align=center;" parent="1" vertex="1">
          <mxGeometry x="782" y="970" width="340" height="40" as="geometry" />
        </mxCell>
        <mxCell id="r5Bo3zyKJavz-clfbByA-24" value="" style="endArrow=none;html=1;rounded=0;fontSize=12;startSize=8;endSize=8;curved=1;entryX=0.121;entryY=1.05;entryDx=0;entryDy=0;entryPerimeter=0;exitX=0.5;exitY=0;exitDx=0;exitDy=0;exitPerimeter=0;" parent="1" source="r5Bo3zyKJavz-clfbByA-49" target="r5Bo3zyKJavz-clfbByA-2" edge="1">
          <mxGeometry width="50" height="50" relative="1" as="geometry">
            <mxPoint x="846" y="800" as="sourcePoint" />
            <mxPoint x="1034" y="830" as="targetPoint" />
          </mxGeometry>
        </mxCell>
        <mxCell id="r5Bo3zyKJavz-clfbByA-25" value="&lt;div&gt;172.16.150.3&lt;/div&gt;eth0" style="edgeLabel;html=1;align=center;verticalAlign=middle;resizable=0;points=[];fontSize=12;" parent="r5Bo3zyKJavz-clfbByA-24" vertex="1" connectable="0">
          <mxGeometry x="-0.5172" y="-1" relative="1" as="geometry">
            <mxPoint as="offset" />
          </mxGeometry>
        </mxCell>
        <mxCell id="r5Bo3zyKJavz-clfbByA-26" value="" style="endArrow=none;html=1;rounded=0;fontSize=12;startSize=8;endSize=8;curved=1;exitX=0.5;exitY=1;exitDx=0;exitDy=0;exitPerimeter=0;entryX=0.103;entryY=0.05;entryDx=0;entryDy=0;entryPerimeter=0;" parent="1" source="r5Bo3zyKJavz-clfbByA-49" target="r5Bo3zyKJavz-clfbByA-23" edge="1">
          <mxGeometry width="50" height="50" relative="1" as="geometry">
            <mxPoint x="984" y="880" as="sourcePoint" />
            <mxPoint x="1034" y="830" as="targetPoint" />
          </mxGeometry>
        </mxCell>
        <mxCell id="r5Bo3zyKJavz-clfbByA-27" value="172.16.200.2&lt;div&gt;eth1&lt;/div&gt;" style="edgeLabel;html=1;align=center;verticalAlign=middle;resizable=0;points=[];fontSize=12;" parent="r5Bo3zyKJavz-clfbByA-26" vertex="1" connectable="0">
          <mxGeometry x="-0.2728" y="1" relative="1" as="geometry">
            <mxPoint x="-1" y="8" as="offset" />
          </mxGeometry>
        </mxCell>
        <mxCell id="r5Bo3zyKJavz-clfbByA-28" value="wazuh&lt;div&gt;172.16.200.10&lt;/div&gt;" style="shape=image;html=1;verticalAlign=top;verticalLabelPosition=bottom;labelBackgroundColor=#ffffff;imageAspect=0;aspect=fixed;image=https://cdn1.iconfinder.com/data/icons/logos-brands-1/24/logo_brand_brands_logos_ubuntu-128.png" parent="1" vertex="1">
          <mxGeometry x="782" y="1070" width="60" height="60" as="geometry" />
        </mxCell>
        <mxCell id="r5Bo3zyKJavz-clfbByA-29" value="MGMT02&lt;div&gt;172.16.200.11&lt;/div&gt;" style="sketch=0;aspect=fixed;pointerEvents=1;shadow=0;dashed=0;html=1;strokeColor=none;labelPosition=center;verticalLabelPosition=bottom;verticalAlign=top;align=center;fillColor=#00188D;shape=mxgraph.mscae.enterprise.windows_server" parent="1" vertex="1">
          <mxGeometry x="940" y="1070" width="39" height="50" as="geometry" />
        </mxCell>
        <mxCell id="r5Bo3zyKJavz-clfbByA-30" value="" style="endArrow=none;html=1;rounded=0;fontSize=12;startSize=8;endSize=8;curved=1;entryX=0.5;entryY=1;entryDx=0;entryDy=0;exitX=0.308;exitY=0.12;exitDx=0;exitDy=0;exitPerimeter=0;" parent="1" source="r5Bo3zyKJavz-clfbByA-29" target="r5Bo3zyKJavz-clfbByA-23" edge="1">
          <mxGeometry width="50" height="50" relative="1" as="geometry">
            <mxPoint x="984" y="1000" as="sourcePoint" />
            <mxPoint x="1034" y="950" as="targetPoint" />
          </mxGeometry>
        </mxCell>
        <mxCell id="r5Bo3zyKJavz-clfbByA-31" value="" style="endArrow=none;html=1;rounded=0;fontSize=12;startSize=8;endSize=8;curved=1;entryX=0.107;entryY=1.038;entryDx=0;entryDy=0;entryPerimeter=0;exitX=0.5;exitY=0;exitDx=0;exitDy=0;" parent="1" source="r5Bo3zyKJavz-clfbByA-28" target="r5Bo3zyKJavz-clfbByA-23" edge="1">
          <mxGeometry width="50" height="50" relative="1" as="geometry">
            <mxPoint x="984" y="1000" as="sourcePoint" />
            <mxPoint x="1034" y="950" as="targetPoint" />
          </mxGeometry>
        </mxCell>
        <mxCell id="r5Bo3zyKJavz-clfbByA-37" value="" style="endArrow=none;html=1;rounded=0;entryX=0;entryY=0.5;entryDx=0;entryDy=0;exitX=1;exitY=0.5;exitDx=0;exitDy=0;" parent="1" source="r5Bo3zyKJavz-clfbByA-1" edge="1">
          <mxGeometry width="50" height="50" relative="1" as="geometry">
            <mxPoint x="730" y="490" as="sourcePoint" />
            <mxPoint x="950" y="390" as="targetPoint" />
          </mxGeometry>
        </mxCell>
        <mxCell id="r5Bo3zyKJavz-clfbByA-43" value="&lt;div&gt;&lt;br&gt;&lt;/div&gt;" style="shape=umlActor;verticalLabelPosition=bottom;verticalAlign=top;html=1;outlineConnect=0;" parent="1" vertex="1">
          <mxGeometry x="1115" y="200" width="50" height="80" as="geometry" />
        </mxCell>
        <mxCell id="r5Bo3zyKJavz-clfbByA-44" value="" style="endArrow=none;html=1;rounded=0;exitX=0.612;exitY=-0.033;exitDx=0;exitDy=0;exitPerimeter=0;" parent="1" source="r5Bo3zyKJavz-clfbByA-2" target="r5Bo3zyKJavz-clfbByA-50" edge="1">
          <mxGeometry width="50" height="50" relative="1" as="geometry">
            <mxPoint x="970" y="590" as="sourcePoint" />
            <mxPoint x="1020" y="540" as="targetPoint" />
          </mxGeometry>
        </mxCell>
        <mxCell id="r5Bo3zyKJavz-clfbByA-45" value="" style="endArrow=none;html=1;rounded=0;exitX=0.882;exitY=-0.005;exitDx=0;exitDy=0;exitPerimeter=0;" parent="1" source="r5Bo3zyKJavz-clfbByA-2" target="r5Bo3zyKJavz-clfbByA-51" edge="1">
          <mxGeometry width="50" height="50" relative="1" as="geometry">
            <mxPoint x="1020" y="570" as="sourcePoint" />
            <mxPoint x="1070" y="520" as="targetPoint" />
          </mxGeometry>
        </mxCell>
        <mxCell id="r5Bo3zyKJavz-clfbByA-46" value="" style="endArrow=none;html=1;rounded=0;" parent="1" source="r5Bo3zyKJavz-clfbByA-48" target="r5Bo3zyKJavz-clfbByA-43" edge="1">
          <mxGeometry width="50" height="50" relative="1" as="geometry">
            <mxPoint x="1090" y="430" as="sourcePoint" />
            <mxPoint x="1140" y="380" as="targetPoint" />
          </mxGeometry>
        </mxCell>
        <mxCell id="r5Bo3zyKJavz-clfbByA-47" value="" style="endArrow=none;html=1;rounded=0;entryX=0.5;entryY=0;entryDx=0;entryDy=0;" parent="1" source="r5Bo3zyKJavz-clfbByA-48" target="r5Bo3zyKJavz-clfbByA-51" edge="1">
          <mxGeometry width="50" height="50" relative="1" as="geometry">
            <mxPoint x="1090" y="430" as="sourcePoint" />
            <mxPoint x="1140" y="380" as="targetPoint" />
          </mxGeometry>
        </mxCell>
        <mxCell id="r5Bo3zyKJavz-clfbByA-48" value="&lt;div&gt;Access via&lt;/div&gt;&lt;div&gt;Chrome Remote Desktop&lt;br&gt;&lt;/div&gt;" style="dashed=0;outlineConnect=0;html=1;align=center;labelPosition=center;verticalLabelPosition=bottom;verticalAlign=top;shape=mxgraph.weblogos.chrome;labelBackgroundColor=default;" parent="1" vertex="1">
          <mxGeometry x="1110" y="364" width="60" height="60" as="geometry" />
        </mxCell>
        <mxCell id="r5Bo3zyKJavz-clfbByA-49" value="&lt;span&gt;FW-MGMT&lt;/span&gt;" style="outlineConnect=0;dashed=0;verticalLabelPosition=bottom;verticalAlign=top;align=center;html=1;shape=mxgraph.aws3.router;fillColor=#F58534;gradientColor=none;labelBackgroundColor=#FFFFFF;" parent="1" vertex="1">
          <mxGeometry x="782" y="753" width="69" height="72" as="geometry" />
        </mxCell>
        <mxCell id="r5Bo3zyKJavz-clfbByA-50" value="wks01&lt;div&gt;172.16.150.100-150&lt;/div&gt;" style="image;sketch=0;aspect=fixed;html=1;points=[];align=center;fontSize=12;image=img/lib/mscae/VirtualMachineWindows.svg;" parent="1" vertex="1">
          <mxGeometry x="979" y="504" width="50" height="46" as="geometry" />
        </mxCell>
        <mxCell id="r5Bo3zyKJavz-clfbByA-51" value="mgmt01&lt;div&gt;172.16.150.10&lt;/div&gt;" style="shape=image;html=1;verticalAlign=top;verticalLabelPosition=bottom;labelBackgroundColor=#ffffff;imageAspect=0;aspect=fixed;image=https://cdn1.iconfinder.com/data/icons/operating-system-flat-1/30/ubuntu-128.png" parent="1" vertex="1">
          <mxGeometry x="1080" y="502.6" width="70" height="70" as="geometry" />
        </mxCell>
        <mxCell id="r5Bo3zyKJavz-clfbByA-52" value="&lt;div&gt;&lt;font style=&quot;font-size: 18px;&quot;&gt;SEC 350 -&amp;nbsp; Network Security Controls&lt;/font&gt;&lt;/div&gt;&lt;div&gt;&lt;font style=&quot;&quot;&gt;&lt;font style=&quot;font-size: 18px;&quot;&gt;Network Diagram - Charlotte Croce&lt;/font&gt;&lt;font style=&quot;font-size: 16px;&quot;&gt;&lt;br&gt;&lt;/font&gt;&lt;/font&gt;&lt;/div&gt;&lt;div&gt;&lt;font style=&quot;&quot;&gt;&lt;font style=&quot;font-size: 18px;&quot;&gt;MIDTERM AND AFTER&lt;/font&gt;&lt;/font&gt;&lt;/div&gt;" style="rounded=0;whiteSpace=wrap;html=1;" parent="1" vertex="1">
          <mxGeometry x="654" y="130" width="356" height="100" as="geometry" />
        </mxCell>
        <mxCell id="r5Bo3zyKJavz-clfbByA-53" value="" style="shape=image;verticalLabelPosition=bottom;labelBackgroundColor=default;verticalAlign=top;aspect=fixed;imageAspect=0;image=https://wazuh.com/uploads/2022/05/wazuh-logo.png;" parent="1" vertex="1">
          <mxGeometry x="820.66" y="1040" width="89.68" height="30" as="geometry" />
        </mxCell>
        <mxCell id="r5Bo3zyKJavz-clfbByA-56" value="access via vSphere" style="shape=image;verticalLabelPosition=bottom;labelBackgroundColor=default;verticalAlign=top;aspect=fixed;imageAspect=0;image=https://raw.githubusercontent.com/pulumiverse/pulumi-esxi-native/main/docs/esxi-logo.png;clipPath=inset(3% 4.33% 5% 2%);" parent="1" vertex="1">
          <mxGeometry x="320" y="215.71" width="69.82" height="68.58" as="geometry" />
        </mxCell>
        <mxCell id="r5Bo3zyKJavz-clfbByA-57" value="" style="endArrow=none;html=1;rounded=0;entryX=0;entryY=1;entryDx=0;entryDy=0;exitX=1;exitY=0.5;exitDx=0;exitDy=0;" parent="1" source="r5Bo3zyKJavz-clfbByA-56" target="r5Bo3zyKJavz-clfbByA-13" edge="1">
          <mxGeometry width="50" height="50" relative="1" as="geometry">
            <mxPoint x="490" y="330" as="sourcePoint" />
            <mxPoint x="540" y="280" as="targetPoint" />
          </mxGeometry>
        </mxCell>
        <mxCell id="r5Bo3zyKJavz-clfbByA-58" value="" style="endArrow=none;html=1;rounded=0;entryX=0.75;entryY=1;entryDx=0;entryDy=0;exitX=0.5;exitY=0;exitDx=0;exitDy=0;exitPerimeter=0;" parent="1" source="r5Bo3zyKJavz-clfbByA-9" target="r5Bo3zyKJavz-clfbByA-3" edge="1">
          <mxGeometry width="50" height="50" relative="1" as="geometry">
            <mxPoint x="470" y="700" as="sourcePoint" />
            <mxPoint x="520" y="650" as="targetPoint" />
          </mxGeometry>
        </mxCell>
        <mxCell id="r5Bo3zyKJavz-clfbByA-65" value="NGINX01&lt;div&gt;172.16.50.3&lt;/div&gt;" style="shape=image;html=1;verticalAlign=top;verticalLabelPosition=bottom;labelBackgroundColor=#ffffff;imageAspect=0;aspect=fixed;image=https://cdn1.iconfinder.com/data/icons/operating-system-flat-1/30/ubuntu-128.png;clipPath=inset(10.94% 10.94% 10.94% 10.94%);" parent="1" vertex="1">
          <mxGeometry x="185" y="693" width="60" height="60" as="geometry" />
        </mxCell>
        <mxCell id="r5Bo3zyKJavz-clfbByA-66" value="TRAVELER&lt;div&gt;10.0.17.51&lt;/div&gt;" style="image;sketch=0;aspect=fixed;html=1;points=[];align=center;fontSize=12;image=img/lib/mscae/VirtualMachineWindows.svg;" parent="1" vertex="1">
          <mxGeometry x="950" y="360" width="50" height="46" as="geometry" />
        </mxCell>
        <mxCell id="TJdfRbBNyWWt9X7yNkoo-3" value="" style="endArrow=none;html=1;rounded=0;entryX=0.5;entryY=1;entryDx=0;entryDy=0;exitX=0.5;exitY=0;exitDx=0;exitDy=0;" edge="1" parent="1" source="r5Bo3zyKJavz-clfbByA-2" target="TJdfRbBNyWWt9X7yNkoo-2">
          <mxGeometry width="50" height="50" relative="1" as="geometry">
            <mxPoint x="750" y="670" as="sourcePoint" />
            <mxPoint x="800" y="620" as="targetPoint" />
          </mxGeometry>
        </mxCell>
        <mxCell id="TJdfRbBNyWWt9X7yNkoo-2" value="dhcp02&lt;br&gt;&lt;div&gt;172.16.150.151&lt;/div&gt;" style="shape=image;html=1;verticalAlign=top;verticalLabelPosition=bottom;labelBackgroundColor=default;imageAspect=0;aspect=fixed;image=https://cdn1.iconfinder.com/data/icons/operating-system-flat-1/30/ubuntu-128.png" vertex="1" parent="1">
          <mxGeometry x="830.5" y="491.6" width="70" height="70" as="geometry" />
        </mxCell>
        <mxCell id="TJdfRbBNyWWt9X7yNkoo-4" value="" style="shape=table;startSize=0;container=1;collapsible=0;childLayout=tableLayout;fontSize=16;" vertex="1" parent="1">
          <mxGeometry x="1300" y="334" width="340" height="280" as="geometry" />
        </mxCell>
        <mxCell id="TJdfRbBNyWWt9X7yNkoo-5" value="" style="shape=tableRow;horizontal=0;startSize=0;swimlaneHead=0;swimlaneBody=0;strokeColor=inherit;top=0;left=0;bottom=0;right=0;collapsible=0;dropTarget=0;fillColor=none;points=[[0,0.5],[1,0.5]];portConstraint=eastwest;fontSize=16;" vertex="1" parent="TJdfRbBNyWWt9X7yNkoo-4">
          <mxGeometry width="340" height="40" as="geometry" />
        </mxCell>
        <mxCell id="TJdfRbBNyWWt9X7yNkoo-6" value="TRAVELER" style="shape=partialRectangle;html=1;whiteSpace=wrap;connectable=0;strokeColor=inherit;overflow=hidden;fillColor=none;top=0;left=0;bottom=0;right=0;pointerEvents=1;fontSize=16;" vertex="1" parent="TJdfRbBNyWWt9X7yNkoo-5">
          <mxGeometry width="150" height="40" as="geometry">
            <mxRectangle width="150" height="40" as="alternateBounds" />
          </mxGeometry>
        </mxCell>
        <mxCell id="TJdfRbBNyWWt9X7yNkoo-7" value="10.0.17.51" style="shape=partialRectangle;html=1;whiteSpace=wrap;connectable=0;strokeColor=inherit;overflow=hidden;fillColor=none;top=0;left=0;bottom=0;right=0;pointerEvents=1;fontSize=16;" vertex="1" parent="TJdfRbBNyWWt9X7yNkoo-5">
          <mxGeometry x="150" width="190" height="40" as="geometry">
            <mxRectangle width="190" height="40" as="alternateBounds" />
          </mxGeometry>
        </mxCell>
        <mxCell id="TJdfRbBNyWWt9X7yNkoo-9" value="" style="shape=tableRow;horizontal=0;startSize=0;swimlaneHead=0;swimlaneBody=0;strokeColor=inherit;top=0;left=0;bottom=0;right=0;collapsible=0;dropTarget=0;fillColor=none;points=[[0,0.5],[1,0.5]];portConstraint=eastwest;fontSize=16;" vertex="1" parent="TJdfRbBNyWWt9X7yNkoo-4">
          <mxGeometry y="40" width="340" height="40" as="geometry" />
        </mxCell>
        <mxCell id="TJdfRbBNyWWt9X7yNkoo-10" value="MGMT01" style="shape=partialRectangle;html=1;whiteSpace=wrap;connectable=0;strokeColor=inherit;overflow=hidden;fillColor=none;top=0;left=0;bottom=0;right=0;pointerEvents=1;fontSize=16;" vertex="1" parent="TJdfRbBNyWWt9X7yNkoo-9">
          <mxGeometry width="150" height="40" as="geometry">
            <mxRectangle width="150" height="40" as="alternateBounds" />
          </mxGeometry>
        </mxCell>
        <mxCell id="TJdfRbBNyWWt9X7yNkoo-11" value="172.16.150.10" style="shape=partialRectangle;html=1;whiteSpace=wrap;connectable=0;strokeColor=inherit;overflow=hidden;fillColor=none;top=0;left=0;bottom=0;right=0;pointerEvents=1;fontSize=16;" vertex="1" parent="TJdfRbBNyWWt9X7yNkoo-9">
          <mxGeometry x="150" width="190" height="40" as="geometry">
            <mxRectangle width="190" height="40" as="alternateBounds" />
          </mxGeometry>
        </mxCell>
        <mxCell id="TJdfRbBNyWWt9X7yNkoo-13" value="" style="shape=tableRow;horizontal=0;startSize=0;swimlaneHead=0;swimlaneBody=0;strokeColor=inherit;top=0;left=0;bottom=0;right=0;collapsible=0;dropTarget=0;fillColor=none;points=[[0,0.5],[1,0.5]];portConstraint=eastwest;fontSize=16;" vertex="1" parent="TJdfRbBNyWWt9X7yNkoo-4">
          <mxGeometry y="80" width="340" height="40" as="geometry" />
        </mxCell>
        <mxCell id="TJdfRbBNyWWt9X7yNkoo-14" value="WKS01" style="shape=partialRectangle;html=1;whiteSpace=wrap;connectable=0;strokeColor=inherit;overflow=hidden;fillColor=none;top=0;left=0;bottom=0;right=0;pointerEvents=1;fontSize=16;" vertex="1" parent="TJdfRbBNyWWt9X7yNkoo-13">
          <mxGeometry width="150" height="40" as="geometry">
            <mxRectangle width="150" height="40" as="alternateBounds" />
          </mxGeometry>
        </mxCell>
        <mxCell id="TJdfRbBNyWWt9X7yNkoo-15" value="172.16.150.100-150" style="shape=partialRectangle;html=1;whiteSpace=wrap;connectable=0;strokeColor=inherit;overflow=hidden;fillColor=none;top=0;left=0;bottom=0;right=0;pointerEvents=1;fontSize=16;" vertex="1" parent="TJdfRbBNyWWt9X7yNkoo-13">
          <mxGeometry x="150" width="190" height="40" as="geometry">
            <mxRectangle width="190" height="40" as="alternateBounds" />
          </mxGeometry>
        </mxCell>
        <mxCell id="TJdfRbBNyWWt9X7yNkoo-32" style="shape=tableRow;horizontal=0;startSize=0;swimlaneHead=0;swimlaneBody=0;strokeColor=inherit;top=0;left=0;bottom=0;right=0;collapsible=0;dropTarget=0;fillColor=none;points=[[0,0.5],[1,0.5]];portConstraint=eastwest;fontSize=16;" vertex="1" parent="TJdfRbBNyWWt9X7yNkoo-4">
          <mxGeometry y="120" width="340" height="40" as="geometry" />
        </mxCell>
        <mxCell id="TJdfRbBNyWWt9X7yNkoo-33" value="NGINX01" style="shape=partialRectangle;html=1;whiteSpace=wrap;connectable=0;strokeColor=inherit;overflow=hidden;fillColor=none;top=0;left=0;bottom=0;right=0;pointerEvents=1;fontSize=16;" vertex="1" parent="TJdfRbBNyWWt9X7yNkoo-32">
          <mxGeometry width="150" height="40" as="geometry">
            <mxRectangle width="150" height="40" as="alternateBounds" />
          </mxGeometry>
        </mxCell>
        <mxCell id="TJdfRbBNyWWt9X7yNkoo-34" value="172.16.50.3" style="shape=partialRectangle;html=1;whiteSpace=wrap;connectable=0;strokeColor=inherit;overflow=hidden;fillColor=none;top=0;left=0;bottom=0;right=0;pointerEvents=1;fontSize=16;" vertex="1" parent="TJdfRbBNyWWt9X7yNkoo-32">
          <mxGeometry x="150" width="190" height="40" as="geometry">
            <mxRectangle width="190" height="40" as="alternateBounds" />
          </mxGeometry>
        </mxCell>
        <mxCell id="TJdfRbBNyWWt9X7yNkoo-29" style="shape=tableRow;horizontal=0;startSize=0;swimlaneHead=0;swimlaneBody=0;strokeColor=inherit;top=0;left=0;bottom=0;right=0;collapsible=0;dropTarget=0;fillColor=none;points=[[0,0.5],[1,0.5]];portConstraint=eastwest;fontSize=16;" vertex="1" parent="TJdfRbBNyWWt9X7yNkoo-4">
          <mxGeometry y="160" width="340" height="40" as="geometry" />
        </mxCell>
        <mxCell id="TJdfRbBNyWWt9X7yNkoo-30" value="JUMP" style="shape=partialRectangle;html=1;whiteSpace=wrap;connectable=0;strokeColor=inherit;overflow=hidden;fillColor=none;top=0;left=0;bottom=0;right=0;pointerEvents=1;fontSize=16;" vertex="1" parent="TJdfRbBNyWWt9X7yNkoo-29">
          <mxGeometry width="150" height="40" as="geometry">
            <mxRectangle width="150" height="40" as="alternateBounds" />
          </mxGeometry>
        </mxCell>
        <mxCell id="TJdfRbBNyWWt9X7yNkoo-31" value="172.16.50.4" style="shape=partialRectangle;html=1;whiteSpace=wrap;connectable=0;strokeColor=inherit;overflow=hidden;fillColor=none;top=0;left=0;bottom=0;right=0;pointerEvents=1;fontSize=16;" vertex="1" parent="TJdfRbBNyWWt9X7yNkoo-29">
          <mxGeometry x="150" width="190" height="40" as="geometry">
            <mxRectangle width="190" height="40" as="alternateBounds" />
          </mxGeometry>
        </mxCell>
        <mxCell id="TJdfRbBNyWWt9X7yNkoo-26" style="shape=tableRow;horizontal=0;startSize=0;swimlaneHead=0;swimlaneBody=0;strokeColor=inherit;top=0;left=0;bottom=0;right=0;collapsible=0;dropTarget=0;fillColor=none;points=[[0,0.5],[1,0.5]];portConstraint=eastwest;fontSize=16;" vertex="1" parent="TJdfRbBNyWWt9X7yNkoo-4">
          <mxGeometry y="200" width="340" height="40" as="geometry" />
        </mxCell>
        <mxCell id="TJdfRbBNyWWt9X7yNkoo-27" value="WAZUH" style="shape=partialRectangle;html=1;whiteSpace=wrap;connectable=0;strokeColor=inherit;overflow=hidden;fillColor=none;top=0;left=0;bottom=0;right=0;pointerEvents=1;fontSize=16;" vertex="1" parent="TJdfRbBNyWWt9X7yNkoo-26">
          <mxGeometry width="150" height="40" as="geometry">
            <mxRectangle width="150" height="40" as="alternateBounds" />
          </mxGeometry>
        </mxCell>
        <mxCell id="TJdfRbBNyWWt9X7yNkoo-28" value="172.16.200.10" style="shape=partialRectangle;html=1;whiteSpace=wrap;connectable=0;strokeColor=inherit;overflow=hidden;fillColor=none;top=0;left=0;bottom=0;right=0;pointerEvents=1;fontSize=16;" vertex="1" parent="TJdfRbBNyWWt9X7yNkoo-26">
          <mxGeometry x="150" width="190" height="40" as="geometry">
            <mxRectangle width="190" height="40" as="alternateBounds" />
          </mxGeometry>
        </mxCell>
        <mxCell id="TJdfRbBNyWWt9X7yNkoo-23" style="shape=tableRow;horizontal=0;startSize=0;swimlaneHead=0;swimlaneBody=0;strokeColor=inherit;top=0;left=0;bottom=0;right=0;collapsible=0;dropTarget=0;fillColor=none;points=[[0,0.5],[1,0.5]];portConstraint=eastwest;fontSize=16;" vertex="1" parent="TJdfRbBNyWWt9X7yNkoo-4">
          <mxGeometry y="240" width="340" height="40" as="geometry" />
        </mxCell>
        <mxCell id="TJdfRbBNyWWt9X7yNkoo-24" value="MGMT02" style="shape=partialRectangle;html=1;whiteSpace=wrap;connectable=0;strokeColor=inherit;overflow=hidden;fillColor=none;top=0;left=0;bottom=0;right=0;pointerEvents=1;fontSize=16;" vertex="1" parent="TJdfRbBNyWWt9X7yNkoo-23">
          <mxGeometry width="150" height="40" as="geometry">
            <mxRectangle width="150" height="40" as="alternateBounds" />
          </mxGeometry>
        </mxCell>
        <mxCell id="TJdfRbBNyWWt9X7yNkoo-25" value="172.16.200.11" style="shape=partialRectangle;html=1;whiteSpace=wrap;connectable=0;strokeColor=inherit;overflow=hidden;fillColor=none;top=0;left=0;bottom=0;right=0;pointerEvents=1;fontSize=16;" vertex="1" parent="TJdfRbBNyWWt9X7yNkoo-23">
          <mxGeometry x="150" width="190" height="40" as="geometry">
            <mxRectangle width="190" height="40" as="alternateBounds" />
          </mxGeometry>
        </mxCell>
        <mxCell id="TJdfRbBNyWWt9X7yNkoo-54" value="" style="shape=table;startSize=0;container=1;collapsible=0;childLayout=tableLayout;fontSize=16;" vertex="1" parent="1">
          <mxGeometry x="1140" y="720" width="490" height="200" as="geometry" />
        </mxCell>
        <mxCell id="TJdfRbBNyWWt9X7yNkoo-55" value="" style="shape=tableRow;horizontal=0;startSize=0;swimlaneHead=0;swimlaneBody=0;strokeColor=inherit;top=0;left=0;bottom=0;right=0;collapsible=0;dropTarget=0;fillColor=none;points=[[0,0.5],[1,0.5]];portConstraint=eastwest;fontSize=16;" vertex="1" parent="TJdfRbBNyWWt9X7yNkoo-54">
          <mxGeometry width="490" height="40" as="geometry" />
        </mxCell>
        <mxCell id="TJdfRbBNyWWt9X7yNkoo-56" value="" style="shape=partialRectangle;html=1;whiteSpace=wrap;connectable=0;strokeColor=inherit;overflow=hidden;fillColor=none;top=0;left=0;bottom=0;right=0;pointerEvents=1;fontSize=16;" vertex="1" parent="TJdfRbBNyWWt9X7yNkoo-55">
          <mxGeometry width="123" height="40" as="geometry">
            <mxRectangle width="123" height="40" as="alternateBounds" />
          </mxGeometry>
        </mxCell>
        <mxCell id="TJdfRbBNyWWt9X7yNkoo-57" value="EDGE02" style="shape=partialRectangle;html=1;whiteSpace=wrap;connectable=0;strokeColor=inherit;overflow=hidden;fillColor=none;top=0;left=0;bottom=0;right=0;pointerEvents=1;fontSize=16;" vertex="1" parent="TJdfRbBNyWWt9X7yNkoo-55">
          <mxGeometry x="123" width="177" height="40" as="geometry">
            <mxRectangle width="177" height="40" as="alternateBounds" />
          </mxGeometry>
        </mxCell>
        <mxCell id="TJdfRbBNyWWt9X7yNkoo-58" value="FW-MGMT" style="shape=partialRectangle;html=1;whiteSpace=wrap;connectable=0;strokeColor=inherit;overflow=hidden;fillColor=none;top=0;left=0;bottom=0;right=0;pointerEvents=1;fontSize=16;" vertex="1" parent="TJdfRbBNyWWt9X7yNkoo-55">
          <mxGeometry x="300" width="190" height="40" as="geometry">
            <mxRectangle width="190" height="40" as="alternateBounds" />
          </mxGeometry>
        </mxCell>
        <mxCell id="TJdfRbBNyWWt9X7yNkoo-59" value="" style="shape=tableRow;horizontal=0;startSize=0;swimlaneHead=0;swimlaneBody=0;strokeColor=inherit;top=0;left=0;bottom=0;right=0;collapsible=0;dropTarget=0;fillColor=none;points=[[0,0.5],[1,0.5]];portConstraint=eastwest;fontSize=16;" vertex="1" parent="TJdfRbBNyWWt9X7yNkoo-54">
          <mxGeometry y="40" width="490" height="40" as="geometry" />
        </mxCell>
        <mxCell id="TJdfRbBNyWWt9X7yNkoo-60" value="WAN" style="shape=partialRectangle;html=1;whiteSpace=wrap;connectable=0;strokeColor=inherit;overflow=hidden;fillColor=none;top=0;left=0;bottom=0;right=0;pointerEvents=1;fontSize=16;" vertex="1" parent="TJdfRbBNyWWt9X7yNkoo-59">
          <mxGeometry width="123" height="40" as="geometry">
            <mxRectangle width="123" height="40" as="alternateBounds" />
          </mxGeometry>
        </mxCell>
        <mxCell id="TJdfRbBNyWWt9X7yNkoo-61" value="10.0.17.151" style="shape=partialRectangle;html=1;whiteSpace=wrap;connectable=0;strokeColor=inherit;overflow=hidden;fillColor=none;top=0;left=0;bottom=0;right=0;pointerEvents=1;fontSize=16;" vertex="1" parent="TJdfRbBNyWWt9X7yNkoo-59">
          <mxGeometry x="123" width="177" height="40" as="geometry">
            <mxRectangle width="177" height="40" as="alternateBounds" />
          </mxGeometry>
        </mxCell>
        <mxCell id="TJdfRbBNyWWt9X7yNkoo-62" value="X" style="shape=partialRectangle;html=1;whiteSpace=wrap;connectable=0;strokeColor=inherit;overflow=hidden;fillColor=none;top=0;left=0;bottom=0;right=0;pointerEvents=1;fontSize=16;" vertex="1" parent="TJdfRbBNyWWt9X7yNkoo-59">
          <mxGeometry x="300" width="190" height="40" as="geometry">
            <mxRectangle width="190" height="40" as="alternateBounds" />
          </mxGeometry>
        </mxCell>
        <mxCell id="TJdfRbBNyWWt9X7yNkoo-63" value="" style="shape=tableRow;horizontal=0;startSize=0;swimlaneHead=0;swimlaneBody=0;strokeColor=inherit;top=0;left=0;bottom=0;right=0;collapsible=0;dropTarget=0;fillColor=none;points=[[0,0.5],[1,0.5]];portConstraint=eastwest;fontSize=16;" vertex="1" parent="TJdfRbBNyWWt9X7yNkoo-54">
          <mxGeometry y="80" width="490" height="40" as="geometry" />
        </mxCell>
        <mxCell id="TJdfRbBNyWWt9X7yNkoo-64" value="DMZ" style="shape=partialRectangle;html=1;whiteSpace=wrap;connectable=0;strokeColor=inherit;overflow=hidden;fillColor=none;top=0;left=0;bottom=0;right=0;pointerEvents=1;fontSize=16;" vertex="1" parent="TJdfRbBNyWWt9X7yNkoo-63">
          <mxGeometry width="123" height="40" as="geometry">
            <mxRectangle width="123" height="40" as="alternateBounds" />
          </mxGeometry>
        </mxCell>
        <mxCell id="TJdfRbBNyWWt9X7yNkoo-65" value="172.16.50.2" style="shape=partialRectangle;html=1;whiteSpace=wrap;connectable=0;strokeColor=inherit;overflow=hidden;fillColor=none;top=0;left=0;bottom=0;right=0;pointerEvents=1;fontSize=16;" vertex="1" parent="TJdfRbBNyWWt9X7yNkoo-63">
          <mxGeometry x="123" width="177" height="40" as="geometry">
            <mxRectangle width="177" height="40" as="alternateBounds" />
          </mxGeometry>
        </mxCell>
        <mxCell id="TJdfRbBNyWWt9X7yNkoo-66" value="X" style="shape=partialRectangle;html=1;whiteSpace=wrap;connectable=0;strokeColor=inherit;overflow=hidden;fillColor=none;top=0;left=0;bottom=0;right=0;pointerEvents=1;fontSize=16;" vertex="1" parent="TJdfRbBNyWWt9X7yNkoo-63">
          <mxGeometry x="300" width="190" height="40" as="geometry">
            <mxRectangle width="190" height="40" as="alternateBounds" />
          </mxGeometry>
        </mxCell>
        <mxCell id="TJdfRbBNyWWt9X7yNkoo-71" style="shape=tableRow;horizontal=0;startSize=0;swimlaneHead=0;swimlaneBody=0;strokeColor=inherit;top=0;left=0;bottom=0;right=0;collapsible=0;dropTarget=0;fillColor=none;points=[[0,0.5],[1,0.5]];portConstraint=eastwest;fontSize=16;" vertex="1" parent="TJdfRbBNyWWt9X7yNkoo-54">
          <mxGeometry y="120" width="490" height="40" as="geometry" />
        </mxCell>
        <mxCell id="TJdfRbBNyWWt9X7yNkoo-72" value="LAN" style="shape=partialRectangle;html=1;whiteSpace=wrap;connectable=0;strokeColor=inherit;overflow=hidden;fillColor=none;top=0;left=0;bottom=0;right=0;pointerEvents=1;fontSize=16;" vertex="1" parent="TJdfRbBNyWWt9X7yNkoo-71">
          <mxGeometry width="123" height="40" as="geometry">
            <mxRectangle width="123" height="40" as="alternateBounds" />
          </mxGeometry>
        </mxCell>
        <mxCell id="TJdfRbBNyWWt9X7yNkoo-73" value="172.16.150.2" style="shape=partialRectangle;html=1;whiteSpace=wrap;connectable=0;strokeColor=inherit;overflow=hidden;fillColor=none;top=0;left=0;bottom=0;right=0;pointerEvents=1;fontSize=16;" vertex="1" parent="TJdfRbBNyWWt9X7yNkoo-71">
          <mxGeometry x="123" width="177" height="40" as="geometry">
            <mxRectangle width="177" height="40" as="alternateBounds" />
          </mxGeometry>
        </mxCell>
        <mxCell id="TJdfRbBNyWWt9X7yNkoo-74" value="172.16.150.3" style="shape=partialRectangle;html=1;whiteSpace=wrap;connectable=0;strokeColor=inherit;overflow=hidden;fillColor=none;top=0;left=0;bottom=0;right=0;pointerEvents=1;fontSize=16;" vertex="1" parent="TJdfRbBNyWWt9X7yNkoo-71">
          <mxGeometry x="300" width="190" height="40" as="geometry">
            <mxRectangle width="190" height="40" as="alternateBounds" />
          </mxGeometry>
        </mxCell>
        <mxCell id="TJdfRbBNyWWt9X7yNkoo-67" style="shape=tableRow;horizontal=0;startSize=0;swimlaneHead=0;swimlaneBody=0;strokeColor=inherit;top=0;left=0;bottom=0;right=0;collapsible=0;dropTarget=0;fillColor=none;points=[[0,0.5],[1,0.5]];portConstraint=eastwest;fontSize=16;" vertex="1" parent="TJdfRbBNyWWt9X7yNkoo-54">
          <mxGeometry y="160" width="490" height="40" as="geometry" />
        </mxCell>
        <mxCell id="TJdfRbBNyWWt9X7yNkoo-68" value="MGMT" style="shape=partialRectangle;html=1;whiteSpace=wrap;connectable=0;strokeColor=inherit;overflow=hidden;fillColor=none;top=0;left=0;bottom=0;right=0;pointerEvents=1;fontSize=16;" vertex="1" parent="TJdfRbBNyWWt9X7yNkoo-67">
          <mxGeometry width="123" height="40" as="geometry">
            <mxRectangle width="123" height="40" as="alternateBounds" />
          </mxGeometry>
        </mxCell>
        <mxCell id="TJdfRbBNyWWt9X7yNkoo-69" value="X" style="shape=partialRectangle;html=1;whiteSpace=wrap;connectable=0;strokeColor=inherit;overflow=hidden;fillColor=none;top=0;left=0;bottom=0;right=0;pointerEvents=1;fontSize=16;" vertex="1" parent="TJdfRbBNyWWt9X7yNkoo-67">
          <mxGeometry x="123" width="177" height="40" as="geometry">
            <mxRectangle width="177" height="40" as="alternateBounds" />
          </mxGeometry>
        </mxCell>
        <mxCell id="TJdfRbBNyWWt9X7yNkoo-70" value="172.16.200.2" style="shape=partialRectangle;html=1;whiteSpace=wrap;connectable=0;strokeColor=inherit;overflow=hidden;fillColor=none;top=0;left=0;bottom=0;right=0;pointerEvents=1;fontSize=16;" vertex="1" parent="TJdfRbBNyWWt9X7yNkoo-67">
          <mxGeometry x="300" width="190" height="40" as="geometry">
            <mxRectangle width="190" height="40" as="alternateBounds" />
          </mxGeometry>
        </mxCell>
      </root>
    </mxGraphModel>
  </diagram>
</mxfile>
